<svg xmlns="http://www.w3.org/2000/svg" width="37" height="24" viewBox="0 0 37 24">
  <g id="banktransfer" transform="translate(-0.752)">
    <rect id="Rectangle_72" data-name="Rectangle 72" width="37" height="24" rx="12" transform="translate(0.752)" fill="none"/>
    <g id="bank" transform="translate(10.314 3.774)">
      <path id="Path_6383" data-name="Path 6383" d="M47.543,54.885v6.223c0,.435.265.788.593.788h1.216c.327,0,.593-.352.593-.788V54.885a.514.514,0,0,0,0-.059h9.494V60.95c0,.435.265.788.593.788h1.216c.327,0,.593-.352.593-.788V54.825h1.182V52.62l-4.127-2.56L54.769,47.5l-4.125,2.56-4.125,2.56v2.205h1.027C47.544,54.845,47.543,54.864,47.543,54.885Zm13.872-.945H48.123a.4.4,0,0,1,0-.807H61.415a.4.4,0,1,1,0,.807Z" transform="translate(-46.085 -47.5)" fill="#005093"/>
      <path id="Path_6384" data-name="Path 6384" d="M52.082,419.5H36.288a.788.788,0,0,0-.788.788v.2a.788.788,0,0,0,.788.788H52.082a.788.788,0,0,0,.788-.788v-.2a.788.788,0,0,0-.788-.788Z" transform="translate(-35.5 -404.849)" fill="#005093"/>
      <path id="Path_6385" data-name="Path 6385" d="M190.788,262.5a.788.788,0,0,0-.788.788v3.742a.788.788,0,0,0,.788.788h3.623a.788.788,0,0,0,.788-.788v-3.742a.788.788,0,0,0-.788-.788Zm2.088,3.059v.682a.3.3,0,0,1-.591,0v-.7a.768.768,0,1,1,.591.016Z" transform="translate(-183.915 -254.032)" fill="#c52114"/>
    </g>
  </g>
</svg>
